<svg width="25" height="88" viewBox="0 0 25 88" fill="none" xmlns="http://www.w3.org/2000/svg">
<path d="M6.267 3.133C6.267 4.864 4.864 6.26599 3.133 6.26599C1.403 6.26599 0 4.863 0 3.133C0 1.403 1.403 5.34238e-07 3.133 5.34238e-07C4.864 -0.000999466 6.267 1.402 6.267 3.133Z" fill="#FF5722"/>
<path d="M6.267 23.489C6.267 25.22 4.864 26.622 3.133 26.622C1.403 26.622 0 25.219 0 23.489C0 21.758 1.403 20.356 3.133 20.356C4.864 20.355 6.267 21.758 6.267 23.489Z" fill="#FF5722"/>
<path d="M6.267 43.845C6.267 45.575 4.864 46.978 3.133 46.978C1.403 46.978 0 45.575 0 43.845C0 42.114 1.403 40.712 3.133 40.712C4.864 40.711 6.267 42.114 6.267 43.845Z" fill="#FF5722"/>
<path d="M6.267 64.201C6.267 65.932 4.864 67.334 3.133 67.334C1.403 67.334 0 65.931 0 64.201C0 62.47 1.403 61.068 3.133 61.068C4.864 61.067 6.267 62.47 6.267 64.201Z" fill="#FF5722"/>
<path d="M21.5188 26.623C23.2496 26.623 24.6527 25.2199 24.6527 23.489C24.6527 21.7581 23.2496 20.355 21.5188 20.355C19.7879 20.355 18.3848 21.7581 18.3848 23.489C18.3848 25.2199 19.7879 26.623 21.5188 26.623Z" fill="#FF5722"/>
<path d="M24.6527 43.845C24.6527 45.575 23.2497 46.978 21.5197 46.978C19.7887 46.978 18.3857 45.575 18.3857 43.845C18.3857 42.114 19.7887 40.712 21.5197 40.712C23.2497 40.711 24.6527 42.114 24.6527 43.845Z" fill="#FF5722"/>
<path d="M21.5188 67.335C23.2496 67.335 24.6527 65.9318 24.6527 64.201C24.6527 62.4701 23.2496 61.067 21.5188 61.067C19.7879 61.067 18.3848 62.4701 18.3848 64.201C18.3848 65.9318 19.7879 67.335 21.5188 67.335Z" fill="#FF5722"/>
<path d="M24.6527 84.556C24.6527 86.286 23.2497 87.689 21.5197 87.689C19.7887 87.689 18.3857 86.286 18.3857 84.556C18.3857 82.825 19.7887 81.422 21.5197 81.422C23.2497 81.423 24.6527 82.826 24.6527 84.556Z" fill="#FF5722"/>
</svg>
