<svg width="38" height="39" viewBox="0 0 38 39" fill="none" xmlns="http://www.w3.org/2000/svg">
<path d="M29.3421 12.3605C29.3402 12.373 29.3398 12.3759 29.3364 12.3982C29.3364 12.3982 29.3391 12.38 29.3421 12.3605Z" fill="#171A1F"/>
<path d="M29.3418 12.3604C29.3505 12.3024 29.3469 12.326 29.3418 12.3604Z" fill="#171A1F"/>
<path d="M28.055 6.96692C26.6473 5.36253 24.1028 4.67468 20.8477 4.67468L11.4002 4.67468C10.7342 4.67468 10.1683 5.15903 10.0641 5.81578L6.13032 30.7643C6.05215 31.2562 6.43308 31.7019 6.93169 31.7019H12.7642L14.229 22.4108L14.1836 22.7018C14.2879 22.045 14.8496 21.5607 15.5147 21.5607H18.2863C23.7311 21.5607 27.9945 19.3491 29.2398 12.9516C29.2768 12.7624 29.3365 12.3983 29.3365 12.3983C29.6897 10.031 29.334 8.42422 28.055 6.96692Z" fill="#171A1F"/>
<path d="M30.8126 13.6097C29.4583 19.9082 25.1388 23.2421 18.2861 23.2421H15.8004L13.9468 35.0746H17.9784C18.5604 35.0746 19.0556 34.6508 19.1464 34.0765L19.1944 33.8259L20.121 27.9531L20.1808 27.6285C20.2716 27.0541 20.7668 26.6304 21.3488 26.6304H22.0845C26.8474 26.6304 30.5767 24.6954 31.6665 19.0993C32.1033 16.8542 31.8939 14.9707 30.8126 13.6097Z" fill="#171A1F"/>
</svg>
